<svg width="153" height="120" viewBox="0 0 153 120" fill="none" xmlns="http://www.w3.org/2000/svg">
<path d="M125.172 91.5746C118.962 95.3399 111.393 98.4891 102.169 100.571L102.169 100.571C101.881 100.636 101.594 100.696 101.312 100.755C101.298 100.758 101.284 100.76 101.271 100.763C101.266 100.849 101.261 100.948 101.256 101.06C101.239 101.482 101.226 102.084 101.242 102.8C101.273 104.236 101.423 106.108 101.888 107.894C102.355 109.688 103.125 111.331 104.35 112.379C105.547 113.402 107.247 113.912 109.728 113.318C111.27 112.948 112.826 111.917 114.361 110.382C115.893 108.852 117.373 106.852 118.767 104.603C121.269 100.567 123.466 95.776 125.172 91.5746Z" fill="#60B8FF" stroke="#3CA8FF"/>
<path d="M125.172 91.5747C118.962 95.3399 111.393 98.4891 102.169 100.571L102.169 100.571C101.881 100.636 101.594 100.696 101.312 100.755C101.298 100.757 101.285 100.76 101.272 100.763C101.266 100.862 101.261 100.98 101.256 101.114C101.238 101.57 101.226 102.217 101.247 102.982C101.288 104.392 101.444 106.181 101.889 107.889C101.909 107.884 101.929 107.88 101.949 107.875C109.204 106.238 115.408 103.936 120.719 101.2C122.417 98.0248 123.926 94.6416 125.172 91.5747Z" fill="#22A7FF" stroke="#22A7FF"/>
<path d="M25.4281 49.379L25.9475 49.3241L25.9796 49.8454C26.8139 63.3724 33.2737 78.6412 45.7773 89.1086C58.2634 99.5615 76.8231 105.265 101.949 99.5955C127.053 93.93 139.637 80.307 145.96 68.1273C149.125 62.0293 150.726 56.2836 151.534 52.0635C151.939 49.954 152.145 48.2272 152.25 47.0304C152.302 46.432 152.33 45.9663 152.344 45.6516C152.351 45.4943 152.354 45.3747 152.356 45.2953C152.357 45.2576 152.358 45.229 152.358 45.2095C152.356 45.189 152.352 45.1582 152.347 45.1176C152.336 45.0346 152.319 44.9103 152.296 44.7475C152.249 44.422 152.175 43.9426 152.067 43.3314C151.851 42.1089 151.501 40.3597 150.962 38.2595C149.884 34.057 148.054 28.4597 145.049 22.8675C139.042 11.6889 128.374 0.578949 109.622 0.578949C98.3685 0.578949 90.2052 3.46618 84.1001 7.83306C77.9887 12.2044 73.9024 18.085 70.8501 24.1311C68.636 28.5168 66.98 32.9566 65.4831 36.9698C64.9111 38.5034 64.3623 39.9746 63.8145 41.3568C62.8296 43.8419 61.8443 46.0454 60.7317 47.7653C59.6204 49.4829 58.3471 50.7737 56.7621 51.3522C50.8511 53.5097 46.2765 52.279 43.1842 50.4902C41.6448 49.5998 40.478 48.5748 39.6953 47.772C39.3036 47.3703 39.0069 47.023 38.8068 46.7742C38.7067 46.6498 38.6307 46.5498 38.5789 46.4799C38.553 46.4449 38.5332 46.4174 38.5194 46.3981L38.5033 46.3753L38.4987 46.3686L38.4972 46.3665L38.4967 46.3658C38.4966 46.3656 38.4965 46.3655 38.5444 46.3325C38.5942 46.2982 38.6961 46.2282 38.904 46.0855L38.4964 46.3652L38.2542 46.0122L38.5655 45.7186L38.5656 45.7185L38.5659 45.7183L38.5679 45.7164L38.5772 45.7076L38.6159 45.6703C38.6504 45.6368 38.7023 45.586 38.7698 45.5186C38.9048 45.3838 39.1023 45.1824 39.3492 44.919C39.8432 44.3923 40.5344 43.6183 41.3183 42.6343C42.8876 40.6644 44.8209 37.862 46.2903 34.5234C49.1162 28.1024 50.2206 19.7332 43.7397 11.4237C43.7155 11.621 43.6864 11.8382 43.6516 12.0725C43.4821 13.2137 43.1751 14.7688 42.6243 16.4201C41.5298 19.702 39.4321 23.4786 35.4167 25.0185C32.1891 26.2568 30.3224 28.5173 29.2576 30.4813C28.7248 31.464 28.3949 32.3692 28.1987 33.0269C28.1006 33.3554 28.0363 33.6212 27.9967 33.8028C27.977 33.8936 27.9635 33.9632 27.955 34.009C27.9508 34.0319 27.9479 34.0489 27.9461 34.0595L27.9443 34.0707L27.944 34.0721L27.944 34.0725L27.9439 34.0727L27.7676 35.2221L27.055 34.3031L27.0549 34.303L27.0547 34.3027L27.0538 34.3015L27.0463 34.2921C27.0437 34.289 27.0407 34.2851 27.037 34.2806C27.0304 34.2725 27.0219 34.2621 27.0117 34.2498C26.9799 34.2114 26.9308 34.1536 26.8646 34.0793C26.7321 33.9308 26.5314 33.7172 26.2643 33.464C25.7297 32.9572 24.9319 32.2948 23.8857 31.6791C21.798 30.4505 18.7209 29.4064 14.7455 30.1559C11.1043 30.8428 7.33862 29.2277 4.5473 27.5185C3.13995 26.6568 1.95398 25.7549 1.12001 25.0688C1.01857 24.9853 0.922287 24.905 0.83139 24.8283C0.957993 25.5889 1.15593 26.6361 1.45142 27.8726C2.07944 30.5007 3.1451 33.9719 4.8949 37.3636C6.64545 40.7568 9.06845 44.0468 12.3999 46.3436C15.7209 48.6333 19.9718 49.9554 25.4281 49.379Z" fill="#8BCAFF" stroke="#54AFFB"/>
<path d="M2.45068 26.1034C1.80743 25.6296 1.25938 25.1883 0.831207 24.8272C0.957794 25.5879 1.15579 26.6355 1.45142 27.8726C2.07944 30.5007 3.1451 33.9718 4.8949 37.3636C6.64545 40.7567 9.06847 44.0467 12.3999 46.3436C15.7209 48.6333 19.9718 49.9554 25.4281 49.379L25.9475 49.3241L25.9796 49.8454C26.8139 63.3724 33.2737 78.6412 45.7773 89.1086C58.2634 99.5615 76.8231 105.265 101.949 99.5954C127.053 93.93 139.637 80.307 145.96 68.1272C148.712 62.8244 150.282 57.788 151.176 53.7896C146.723 67.7901 132.945 85.6268 102.167 92.2912C78.6276 97.6021 60.6769 93.0495 48.0202 83.847C35.376 74.6536 28.063 60.8542 25.7207 47.7456C25.1867 44.7578 22.8057 42.4547 19.7827 42.0068L19.856 41.5122L19.7826 42.0068C10.2148 40.5887 5.10921 32.8113 2.45068 26.1034Z" fill="#60B8FF" stroke="#42A9FD"/>
<path d="M151.534 52.0636C151.686 51.273 151.809 50.5362 151.91 49.8609C150.209 55.9618 146.919 63.5878 140.691 70.8408C133.056 79.7317 121.029 88.0345 102.169 92.2908C83.4512 96.5145 68.2679 94.4986 56.4614 88.8632C51.8777 88.1922 47.151 87.1773 42.2301 85.8473C54.6438 98.3178 74.3304 105.827 101.949 99.5955C127.053 93.93 139.637 80.3071 145.96 68.1273C149.125 62.0294 150.725 56.2837 151.534 52.0636Z" fill="#FFDCA7" stroke="#FFCA7A"/>
<path d="M152.273 46.7518C152.173 46.8725 152.065 47 151.95 47.1333C151.096 48.1238 149.844 49.4441 148.247 50.7653C145.06 53.4019 140.457 56.0773 134.888 56.0773V56.0775L134.875 56.0771C127.133 55.8744 120.25 54.4906 116.151 50.3084C116.19 51.0447 116.214 52.0206 116.181 53.1812C116.104 55.8724 115.717 59.5643 114.478 63.5657C111.995 71.5847 106.089 80.8287 92.4651 85.7351C76.6849 91.4192 60.8454 90.8827 42.2308 85.8467C54.6446 98.317 74.3321 105.827 101.949 99.5943C127.053 93.9294 139.637 80.3067 145.96 68.1272C149.125 62.0293 150.726 56.2837 151.534 52.0636C151.939 49.954 152.145 48.2272 152.25 47.0304C152.258 46.9341 152.266 46.8412 152.273 46.7518Z" fill="#FFE9C8" stroke="#FFD699"/>
<path d="M107.311 74.3503C108.641 103.471 81.8256 123.874 74.5763 119.137C68.7625 115.338 83.2806 99.3909 79.5541 81.8027" fill="#8BCAFF"/>
<path d="M74.7312 111.393C74.135 113.184 73.7416 114.699 73.6907 115.923C73.6351 117.261 73.9874 118.155 74.8497 118.718L74.8498 118.718C76.257 119.638 78.6597 119.522 81.6929 118.247C84.6873 116.987 88.1478 114.654 91.5309 111.416C97.4755 105.725 103.127 97.291 105.578 87.1238C101.592 95.2796 95.9314 101.84 90.432 106.174C87.2413 108.689 84.087 110.468 81.3268 111.368C78.7477 112.208 76.4116 112.311 74.7312 111.393Z" fill="#60B8FF" stroke="#38A6FF"/>
<path d="M117.979 31.4663C117.979 34.7283 115.909 37.2835 113.269 37.2835C110.628 37.2835 108.56 34.7283 108.56 31.4663C108.56 28.2043 110.628 25.6491 113.269 25.6491C115.909 25.6479 117.979 28.2043 117.979 31.4663Z" fill="#2D2B2B"/>
</svg>
